<svg viewBox="0 0 300 300" xmlns="http://www.w3.org/2000/svg" xmlns:xlink="http://www.w3.org/1999/xlink" style="width: 100%; height: 100%; background-color: rgb(255, 255, 255);"><svg><g transform="translate(9, 9)scale(0.95)" fill="none"><svg width="300" height="300"><style>.background-color{ fill: transparent; }.dot-color{ fill: #000000; }.corners-square-color-0-0{ fill: #000000; }.corners-dot-color-0-0{ fill: #000000; }.corners-square-color-1-0{ fill: #000000; }.corners-dot-color-1-0{ fill: #000000; }.corners-square-color-0-1{ fill: #000000; }.corners-dot-color-0-1{ fill: #000000; }</style><defs/><g class="dot-color"><path d="M 5 105v 10h 5a 5 5, 0, 0, 0, 0 -10" transform="rotate(-90,10,110)"/><rect x="5" y="115" width="10" height="10" transform="rotate(0,10,120)"/><rect x="5" y="125" width="10" height="10" transform="rotate(0,10,130)"/><rect x="5" y="135" width="10" height="10" transform="rotate(0,10,140)"/><rect x="5" y="145" width="10" height="10" transform="rotate(0,10,150)"/><rect x="5" y="155" width="10" height="10" transform="rotate(0,10,160)"/><rect x="5" y="165" width="10" height="10" transform="rotate(0,10,170)"/><rect x="5" y="175" width="10" height="10" transform="rotate(0,10,180)"/><path d="M 5 185v 10h 10v -5a 5 5, 0, 0, 0, -5 -5" transform="rotate(180,10,190)"/><path d="M 5 205v 10h 5a 5 5, 0, 0, 0, 0 -10" transform="rotate(180,10,210)"/><path d="M 15 85v 10h 5a 5 5, 0, 0, 0, 0 -10" transform="rotate(180,20,90)"/><path d="M 15 115v 10h 5a 5 5, 0, 0, 0, 0 -10" transform="rotate(0,20,120)"/><path d="M 15 145v 10h 5a 5 5, 0, 0, 0, 0 -10" transform="rotate(0,20,150)"/><rect x="15" y="165" width="10" height="10" transform="rotate(0,20,170)"/><rect x="15" y="175" width="10" height="10" transform="rotate(0,20,180)"/><rect x="15" y="185" width="10" height="10" transform="rotate(0,20,190)"/><rect x="15" y="195" width="10" height="10" transform="rotate(0,20,200)"/><rect x="15" y="205" width="10" height="10" transform="rotate(0,20,210)"/><path d="M 25 85v 10h 5a 5 5, 0, 0, 0, 0 -10" transform="rotate(0,30,90)"/><path d="M 25 105v 10h 5a 5 5, 0, 0, 0, 0 -10" transform="rotate(180,30,110)"/><path d="M 25 125v 10h 10v -5a 5 5, 0, 0, 0, -5 -5" transform="rotate(-90,30,130)"/><path d="M 25 135v 10h 5a 5 5, 0, 0, 0, 0 -10" transform="rotate(90,30,140)"/><path d="M 25 155v 10h 5a 5 5, 0, 0, 0, 0 -10" transform="rotate(-90,30,160)"/><rect x="25" y="165" width="10" height="10" transform="rotate(0,30,170)"/><path d="M 25 185v 10h 5a 5 5, 0, 0, 0, 0 -10" transform="rotate(0,30,190)"/><path d="M 25 205v 10h 5a 5 5, 0, 0, 0, 0 -10" transform="rotate(0,30,210)"/><rect x="35" y="105" width="10" height="10" transform="rotate(0,40,110)"/><rect x="35" y="125" width="10" height="10" transform="rotate(0,40,130)"/><rect x="35" y="165" width="10" height="10" transform="rotate(0,40,170)"/><path d="M 35 175v 10h 10v -5a 5 5, 0, 0, 0, -5 -5" transform="rotate(180,40,180)"/><path d="M 35 195v 10h 5a 5 5, 0, 0, 0, 0 -10" transform="rotate(180,40,200)"/><path d="M 45 95v 10h 5a 5 5, 0, 0, 0, 0 -10" transform="rotate(-90,50,100)"/><rect x="45" y="105" width="10" height="10" transform="rotate(0,50,110)"/><rect x="45" y="115" width="10" height="10" transform="rotate(0,50,120)"/><rect x="45" y="125" width="10" height="10" transform="rotate(0,50,130)"/><path d="M 45 135v 10h 10v -5a 5 5, 0, 0, 0, -5 -5" transform="rotate(180,50,140)"/><path d="M 45 165v 10h 10v -5a 5 5, 0, 0, 0, -5 -5" transform="rotate(0,50,170)"/><rect x="45" y="175" width="10" height="10" transform="rotate(0,50,180)"/><rect x="45" y="185" width="10" height="10" transform="rotate(0,50,190)"/><rect x="45" y="195" width="10" height="10" transform="rotate(0,50,200)"/><path d="M 45 205v 10h 10v -5a 5 5, 0, 0, 0, -5 -5" transform="rotate(180,50,210)"/><rect x="55" y="105" width="10" height="10" transform="rotate(0,60,110)"/><path d="M 55 135v 10h 10v -5a 5 5, 0, 0, 0, -5 -5" transform="rotate(0,60,140)"/><path d="M 55 145v 10h 10v -5a 5 5, 0, 0, 0, -5 -5" transform="rotate(180,60,150)"/><path d="M 55 195v 10h 10v -5a 5 5, 0, 0, 0, -5 -5" transform="rotate(0,60,200)"/><rect x="55" y="205" width="10" height="10" transform="rotate(0,60,210)"/><circle cx="70" cy="90" r="5" transform="rotate(0,70,90)"/><rect x="65" y="105" width="10" height="10" transform="rotate(0,70,110)"/><path d="M 65 125v 10h 5a 5 5, 0, 0, 0, 0 -10" transform="rotate(180,70,130)"/><path d="M 65 145v 10h 5a 5 5, 0, 0, 0, 0 -10" transform="rotate(0,70,150)"/><path d="M 65 165v 10h 5a 5 5, 0, 0, 0, 0 -10" transform="rotate(180,70,170)"/><path d="M 65 185v 10h 5a 5 5, 0, 0, 0, 0 -10" transform="rotate(180,70,190)"/><path d="M 65 205v 10h 5a 5 5, 0, 0, 0, 0 -10" transform="rotate(0,70,210)"/><rect x="75" y="105" width="10" height="10" transform="rotate(0,80,110)"/><path d="M 75 125v 10h 10v -5a 5 5, 0, 0, 0, -5 -5" transform="rotate(0,80,130)"/><path d="M 75 135v 10h 10v -5a 5 5, 0, 0, 0, -5 -5" transform="rotate(180,80,140)"/><path d="M 75 155v 10h 5a 5 5, 0, 0, 0, 0 -10" transform="rotate(-90,80,160)"/><rect x="75" y="165" width="10" height="10" transform="rotate(0,80,170)"/><rect x="75" y="175" width="10" height="10" transform="rotate(0,80,180)"/><path d="M 75 185v 10h 10v -5a 5 5, 0, 0, 0, -5 -5" transform="rotate(90,80,190)"/><path d="M 85 15v 10h 5a 5 5, 0, 0, 0, 0 -10" transform="rotate(-90,90,20)"/><rect x="85" y="25" width="10" height="10" transform="rotate(0,90,30)"/><path d="M 85 35v 10h 10v -5a 5 5, 0, 0, 0, -5 -5" transform="rotate(180,90,40)"/><path d="M 85 55v 10h 10v -5a 5 5, 0, 0, 0, -5 -5" transform="rotate(-90,90,60)"/><path d="M 85 65v 10h 5a 5 5, 0, 0, 0, 0 -10" transform="rotate(90,90,70)"/><path d="M 85 105v 10h 5a 5 5, 0, 0, 0, 0 -10" transform="rotate(0,90,110)"/><path d="M 85 135v 10h 10v -5a 5 5, 0, 0, 0, -5 -5" transform="rotate(0,90,140)"/><path d="M 85 145v 10h 5a 5 5, 0, 0, 0, 0 -10" transform="rotate(90,90,150)"/><rect x="85" y="165" width="10" height="10" transform="rotate(0,90,170)"/><circle cx="90" cy="200" r="5" transform="rotate(0,90,200)"/><path d="M 85 265v 10h 10v -5a 5 5, 0, 0, 0, -5 -5" transform="rotate(-90,90,270)"/><path d="M 85 275v 10h 5a 5 5, 0, 0, 0, 0 -10" transform="rotate(90,90,280)"/><rect x="95" y="35" width="10" height="10" transform="rotate(0,100,40)"/><rect x="95" y="45" width="10" height="10" transform="rotate(0,100,50)"/><path d="M 95 55v 10h 10v -5a 5 5, 0, 0, 0, -5 -5" transform="rotate(90,100,60)"/><path d="M 95 75v 10h 5a 5 5, 0, 0, 0, 0 -10" transform="rotate(-90,100,80)"/><path d="M 95 85v 10h 5a 5 5, 0, 0, 0, 0 -10" transform="rotate(90,100,90)"/><path d="M 95 155v 10h 5a 5 5, 0, 0, 0, 0 -10" transform="rotate(-90,100,160)"/><path d="M 95 165v 10h 10v -5a 5 5, 0, 0, 0, -5 -5" transform="rotate(90,100,170)"/><path d="M 95 215v 10h 5a 5 5, 0, 0, 0, 0 -10" transform="rotate(-90,100,220)"/><rect x="95" y="225" width="10" height="10" transform="rotate(0,100,230)"/><rect x="95" y="235" width="10" height="10" transform="rotate(0,100,240)"/><rect x="95" y="245" width="10" height="10" transform="rotate(0,100,250)"/><rect x="95" y="255" width="10" height="10" transform="rotate(0,100,260)"/><path d="M 95 265v 10h 10v -5a 5 5, 0, 0, 0, -5 -5" transform="rotate(90,100,270)"/><circle cx="100" cy="290" r="5" transform="rotate(0,100,290)"/><path d="M 105 5v 10h 5a 5 5, 0, 0, 0, 0 -10" transform="rotate(-90,110,10)"/><path d="M 105 15v 10h 5a 5 5, 0, 0, 0, 0 -10" transform="rotate(90,110,20)"/><path d="M 105 35v 10h 5a 5 5, 0, 0, 0, 0 -10" transform="rotate(0,110,40)"/><circle cx="110" cy="70" r="5" transform="rotate(0,110,70)"/><path d="M 105 105v 10h 5a 5 5, 0, 0, 0, 0 -10" transform="rotate(-90,110,110)"/><path d="M 105 115v 10h 5a 5 5, 0, 0, 0, 0 -10" transform="rotate(90,110,120)"/><circle cx="110" cy="140" r="5" transform="rotate(0,110,140)"/><circle cx="110" cy="180" r="5" transform="rotate(0,110,180)"/><path d="M 105 225v 10h 10v -5a 5 5, 0, 0, 0, -5 -5" transform="rotate(0,110,230)"/><path d="M 105 235v 10h 10v -5a 5 5, 0, 0, 0, -5 -5" transform="rotate(90,110,240)"/><path d="M 105 255v 10h 5a 5 5, 0, 0, 0, 0 -10" transform="rotate(0,110,260)"/><circle cx="110" cy="280" r="5" transform="rotate(0,110,280)"/><path d="M 115 25v 10h 5a 5 5, 0, 0, 0, 0 -10" transform="rotate(180,120,30)"/><path d="M 115 45v 10h 5a 5 5, 0, 0, 0, 0 -10" transform="rotate(180,120,50)"/><circle cx="120" cy="90" r="5" transform="rotate(0,120,90)"/><path d="M 115 185v 10h 5a 5 5, 0, 0, 0, 0 -10" transform="rotate(-90,120,190)"/><path d="M 115 195v 10h 5a 5 5, 0, 0, 0, 0 -10" transform="rotate(90,120,200)"/><circle cx="120" cy="250" r="5" transform="rotate(0,120,250)"/><path d="M 115 285v 10h 5a 5 5, 0, 0, 0, 0 -10" transform="rotate(180,120,290)"/><path d="M 125 15v 10h 5a 5 5, 0, 0, 0, 0 -10" transform="rotate(-90,130,20)"/><rect x="125" y="25" width="10" height="10" transform="rotate(0,130,30)"/><rect x="125" y="35" width="10" height="10" transform="rotate(0,130,40)"/><rect x="125" y="45" width="10" height="10" transform="rotate(0,130,50)"/><path d="M 125 65v 10h 5a 5 5, 0, 0, 0, 0 -10" transform="rotate(-90,130,70)"/><path d="M 125 75v 10h 5a 5 5, 0, 0, 0, 0 -10" transform="rotate(90,130,80)"/><path d="M 125 95v 10h 5a 5 5, 0, 0, 0, 0 -10" transform="rotate(180,130,100)"/><path d="M 125 155v 10h 5a 5 5, 0, 0, 0, 0 -10" transform="rotate(-90,130,160)"/><rect x="125" y="165" width="10" height="10" transform="rotate(0,130,170)"/><path d="M 125 175v 10h 5a 5 5, 0, 0, 0, 0 -10" transform="rotate(90,130,180)"/><circle cx="130" cy="220" r="5" transform="rotate(0,130,220)"/><path d="M 125 235v 10h 5a 5 5, 0, 0, 0, 0 -10" transform="rotate(180,130,240)"/><path d="M 125 265v 10h 10v -5a 5 5, 0, 0, 0, -5 -5" transform="rotate(-90,130,270)"/><rect x="125" y="275" width="10" height="10" transform="rotate(0,130,280)"/><rect x="125" y="285" width="10" height="10" transform="rotate(0,130,290)"/><rect x="135" y="45" width="10" height="10" transform="rotate(0,140,50)"/><path d="M 135 85v 10h 10v -5a 5 5, 0, 0, 0, -5 -5" transform="rotate(-90,140,90)"/><rect x="135" y="95" width="10" height="10" transform="rotate(0,140,100)"/><path d="M 135 115v 10h 10v -5a 5 5, 0, 0, 0, -5 -5" transform="rotate(-90,140,120)"/><path d="M 135 125v 10h 5a 5 5, 0, 0, 0, 0 -10" transform="rotate(90,140,130)"/><rect x="135" y="165" width="10" height="10" transform="rotate(0,140,170)"/><path d="M 135 185v 10h 10v -5a 5 5, 0, 0, 0, -5 -5" transform="rotate(-90,140,190)"/><path d="M 135 195v 10h 10v -5a 5 5, 0, 0, 0, -5 -5" transform="rotate(180,140,200)"/><path d="M 135 225v 10h 5a 5 5, 0, 0, 0, 0 -10" transform="rotate(-90,140,230)"/><rect x="135" y="235" width="10" height="10" transform="rotate(0,140,240)"/><path d="M 135 255v 10h 10v -5a 5 5, 0, 0, 0, -5 -5" transform="rotate(-90,140,260)"/><path d="M 135 265v 10h 10v -5a 5 5, 0, 0, 0, -5 -5" transform="rotate(90,140,270)"/><rect x="135" y="285" width="10" height="10" transform="rotate(0,140,290)"/><path d="M 145 15v 10h 10v -5a 5 5, 0, 0, 0, -5 -5" transform="rotate(-90,150,20)"/><rect x="145" y="25" width="10" height="10" transform="rotate(0,150,30)"/><rect x="145" y="35" width="10" height="10" transform="rotate(0,150,40)"/><rect x="145" y="45" width="10" height="10" transform="rotate(0,150,50)"/><rect x="145" y="55" width="10" height="10" transform="rotate(0,150,60)"/><path d="M 145 65v 10h 5a 5 5, 0, 0, 0, 0 -10" transform="rotate(90,150,70)"/><rect x="145" y="85" width="10" height="10" transform="rotate(0,150,90)"/><rect x="145" y="95" width="10" height="10" transform="rotate(0,150,100)"/><rect x="145" y="105" width="10" height="10" transform="rotate(0,150,110)"/><path d="M 145 115v 10h 10v -5a 5 5, 0, 0, 0, -5 -5" transform="rotate(90,150,120)"/><path d="M 145 145v 10h 5a 5 5, 0, 0, 0, 0 -10" transform="rotate(180,150,150)"/><path d="M 145 165v 10h 10v -5a 5 5, 0, 0, 0, -5 -5" transform="rotate(0,150,170)"/><rect x="145" y="175" width="10" height="10" transform="rotate(0,150,180)"/><rect x="145" y="185" width="10" height="10" transform="rotate(0,150,190)"/><rect x="145" y="195" width="10" height="10" transform="rotate(0,150,200)"/><rect x="145" y="205" width="10" height="10" transform="rotate(0,150,210)"/><path d="M 145 215v 10h 10v -5a 5 5, 0, 0, 0, -5 -5" transform="rotate(180,150,220)"/><path d="M 145 235v 10h 10v -5a 5 5, 0, 0, 0, -5 -5" transform="rotate(0,150,240)"/><rect x="145" y="245" width="10" height="10" transform="rotate(0,150,250)"/><rect x="145" y="255" width="10" height="10" transform="rotate(0,150,260)"/><path d="M 145 285v 10h 5a 5 5, 0, 0, 0, 0 -10" transform="rotate(0,150,290)"/><path d="M 155 5v 10h 10v -5a 5 5, 0, 0, 0, -5 -5" transform="rotate(-90,160,10)"/><rect x="155" y="15" width="10" height="10" transform="rotate(0,160,20)"/><path d="M 155 75v 10h 10v -5a 5 5, 0, 0, 0, -5 -5" transform="rotate(-90,160,80)"/><rect x="155" y="85" width="10" height="10" transform="rotate(0,160,90)"/><circle cx="160" cy="130" r="5" transform="rotate(0,160,130)"/><path d="M 155 145v 10h 5a 5 5, 0, 0, 0, 0 -10" transform="rotate(0,160,150)"/><rect x="155" y="175" width="10" height="10" transform="rotate(0,160,180)"/><rect x="155" y="185" width="10" height="10" transform="rotate(0,160,190)"/><path d="M 155 205v 10h 10v -5a 5 5, 0, 0, 0, -5 -5" transform="rotate(0,160,210)"/><rect x="155" y="215" width="10" height="10" transform="rotate(0,160,220)"/><path d="M 155 225v 10h 5a 5 5, 0, 0, 0, 0 -10" transform="rotate(90,160,230)"/><rect x="155" y="245" width="10" height="10" transform="rotate(0,160,250)"/><rect x="155" y="255" width="10" height="10" transform="rotate(0,160,260)"/><path d="M 165 5v 10h 10v -5a 5 5, 0, 0, 0, -5 -5" transform="rotate(0,170,10)"/><rect x="165" y="15" width="10" height="10" transform="rotate(0,170,20)"/><path d="M 165 25v 10h 5a 5 5, 0, 0, 0, 0 -10" transform="rotate(90,170,30)"/><path d="M 165 55v 10h 10v -5a 5 5, 0, 0, 0, -5 -5" transform="rotate(-90,170,60)"/><rect x="165" y="65" width="10" height="10" transform="rotate(0,170,70)"/><rect x="165" y="75" width="10" height="10" transform="rotate(0,170,80)"/><path d="M 165 85v 10h 10v -5a 5 5, 0, 0, 0, -5 -5" transform="rotate(90,170,90)"/><path d="M 165 105v 10h 5a 5 5, 0, 0, 0, 0 -10" transform="rotate(180,170,110)"/><path d="M 165 155v 10h 5a 5 5, 0, 0, 0, 0 -10" transform="rotate(-90,170,160)"/><rect x="165" y="165" width="10" height="10" transform="rotate(0,170,170)"/><rect x="165" y="175" width="10" height="10" transform="rotate(0,170,180)"/><rect x="165" y="185" width="10" height="10" transform="rotate(0,170,190)"/><path d="M 165 195v 10h 5a 5 5, 0, 0, 0, 0 -10" transform="rotate(90,170,200)"/><path d="M 165 215v 10h 5a 5 5, 0, 0, 0, 0 -10" transform="rotate(0,170,220)"/><path d="M 165 245v 10h 10v -5a 5 5, 0, 0, 0, -5 -5" transform="rotate(0,170,250)"/><rect x="165" y="255" width="10" height="10" transform="rotate(0,170,260)"/><path d="M 165 275v 10h 5a 5 5, 0, 0, 0, 0 -10" transform="rotate(-90,170,280)"/><path d="M 165 285v 10h 5a 5 5, 0, 0, 0, 0 -10" transform="rotate(90,170,290)"/><path d="M 175 35v 10h 5a 5 5, 0, 0, 0, 0 -10" transform="rotate(180,180,40)"/><path d="M 175 55v 10h 5a 5 5, 0, 0, 0, 0 -10" transform="rotate(0,180,60)"/><path d="M 175 75v 10h 5a 5 5, 0, 0, 0, 0 -10" transform="rotate(0,180,80)"/><rect x="175" y="105" width="10" height="10" transform="rotate(0,180,110)"/><path d="M 175 115v 10h 5a 5 5, 0, 0, 0, 0 -10" transform="rotate(90,180,120)"/><path d="M 175 135v 10h 5a 5 5, 0, 0, 0, 0 -10" transform="rotate(180,180,140)"/><rect x="175" y="165" width="10" height="10" transform="rotate(0,180,170)"/><rect x="175" y="255" width="10" height="10" transform="rotate(0,180,260)"/><circle cx="190" cy="10" r="5" transform="rotate(0,190,10)"/><rect x="185" y="35" width="10" height="10" transform="rotate(0,190,40)"/><circle cx="190" cy="70" r="5" transform="rotate(0,190,70)"/><rect x="185" y="105" width="10" height="10" transform="rotate(0,190,110)"/><path d="M 185 125v 10h 10v -5a 5 5, 0, 0, 0, -5 -5" transform="rotate(-90,190,130)"/><rect x="185" y="135" width="10" height="10" transform="rotate(0,190,140)"/><path d="M 185 155v 10h 5a 5 5, 0, 0, 0, 0 -10" transform="rotate(-90,190,160)"/><rect x="185" y="165" width="10" height="10" transform="rotate(0,190,170)"/><rect x="185" y="175" width="10" height="10" transform="rotate(0,190,180)"/><path d="M 185 185v 10h 5a 5 5, 0, 0, 0, 0 -10" transform="rotate(90,190,190)"/><circle cx="190" cy="210" r="5" transform="rotate(0,190,210)"/><path d="M 185 225v 10h 5a 5 5, 0, 0, 0, 0 -10" transform="rotate(180,190,230)"/><path d="M 185 245v 10h 10v -5a 5 5, 0, 0, 0, -5 -5" transform="rotate(-90,190,250)"/><path d="M 185 255v 10h 10v -5a 5 5, 0, 0, 0, -5 -5" transform="rotate(90,190,260)"/><path d="M 195 25v 10h 5a 5 5, 0, 0, 0, 0 -10" transform="rotate(-90,200,30)"/><path d="M 195 35v 10h 10v -5a 5 5, 0, 0, 0, -5 -5" transform="rotate(90,200,40)"/><circle cx="200" cy="80" r="5" transform="rotate(0,200,80)"/><path d="M 195 95v 10h 5a 5 5, 0, 0, 0, 0 -10" transform="rotate(-90,200,100)"/><rect x="195" y="105" width="10" height="10" transform="rotate(0,200,110)"/><rect x="195" y="115" width="10" height="10" transform="rotate(0,200,120)"/><rect x="195" y="125" width="10" height="10" transform="rotate(0,200,130)"/><rect x="195" y="135" width="10" height="10" transform="rotate(0,200,140)"/><path d="M 195 145v 10h 10v -5a 5 5, 0, 0, 0, -5 -5" transform="rotate(180,200,150)"/><rect x="195" y="175" width="10" height="10" transform="rotate(0,200,180)"/><circle cx="200" cy="200" r="5" transform="rotate(0,200,200)"/><path d="M 195 215v 10h 10v -5a 5 5, 0, 0, 0, -5 -5" transform="rotate(-90,200,220)"/><rect x="195" y="225" width="10" height="10" transform="rotate(0,200,230)"/><rect x="195" y="235" width="10" height="10" transform="rotate(0,200,240)"/><rect x="195" y="245" width="10" height="10" transform="rotate(0,200,250)"/><path d="M 195 265v 10h 5a 5 5, 0, 0, 0, 0 -10" transform="rotate(180,200,270)"/><circle cx="200" cy="290" r="5" transform="rotate(0,200,290)"/><circle cx="210" cy="20" r="5" transform="rotate(0,210,20)"/><path d="M 205 55v 10h 5a 5 5, 0, 0, 0, 0 -10" transform="rotate(-90,210,60)"/><path d="M 205 65v 10h 5a 5 5, 0, 0, 0, 0 -10" transform="rotate(90,210,70)"/><path d="M 205 85v 10h 5a 5 5, 0, 0, 0, 0 -10" transform="rotate(180,210,90)"/><path d="M 205 115v 10h 5a 5 5, 0, 0, 0, 0 -10" transform="rotate(0,210,120)"/><path d="M 205 135v 10h 10v -5a 5 5, 0, 0, 0, -5 -5" transform="rotate(0,210,140)"/><path d="M 205 145v 10h 10v -5a 5 5, 0, 0, 0, -5 -5" transform="rotate(90,210,150)"/><path d="M 205 165v 10h 10v -5a 5 5, 0, 0, 0, -5 -5" transform="rotate(-90,210,170)"/><path d="M 205 175v 10h 10v -5a 5 5, 0, 0, 0, -5 -5" transform="rotate(90,210,180)"/><path d="M 205 205v 10h 10v -5a 5 5, 0, 0, 0, -5 -5" transform="rotate(-90,210,210)"/><rect x="205" y="215" width="10" height="10" transform="rotate(0,210,220)"/><rect x="205" y="225" width="10" height="10" transform="rotate(0,210,230)"/><rect x="205" y="235" width="10" height="10" transform="rotate(0,210,240)"/><rect x="205" y="245" width="10" height="10" transform="rotate(0,210,250)"/><path d="M 205 265v 10h 5a 5 5, 0, 0, 0, 0 -10" transform="rotate(0,210,270)"/><path d="M 215 85v 10h 5a 5 5, 0, 0, 0, 0 -10" transform="rotate(0,220,90)"/><path d="M 215 105v 10h 5a 5 5, 0, 0, 0, 0 -10" transform="rotate(180,220,110)"/><path d="M 215 125v 10h 5a 5 5, 0, 0, 0, 0 -10" transform="rotate(180,220,130)"/><rect x="215" y="165" width="10" height="10" transform="rotate(0,220,170)"/><circle cx="220" cy="190" r="5" transform="rotate(0,220,190)"/><rect x="215" y="205" width="10" height="10" transform="rotate(0,220,210)"/><rect x="215" y="245" width="10" height="10" transform="rotate(0,220,250)"/><path d="M 215 255v 10h 5a 5 5, 0, 0, 0, 0 -10" transform="rotate(90,220,260)"/><path d="M 215 275v 10h 10v -5a 5 5, 0, 0, 0, -5 -5" transform="rotate(-90,220,280)"/><path d="M 215 285v 10h 5a 5 5, 0, 0, 0, 0 -10" transform="rotate(90,220,290)"/><path d="M 225 95v 10h 5a 5 5, 0, 0, 0, 0 -10" transform="rotate(-90,230,100)"/><rect x="225" y="105" width="10" height="10" transform="rotate(0,230,110)"/><rect x="225" y="115" width="10" height="10" transform="rotate(0,230,120)"/><rect x="225" y="125" width="10" height="10" transform="rotate(0,230,130)"/><path d="M 225 135v 10h 10v -5a 5 5, 0, 0, 0, -5 -5" transform="rotate(180,230,140)"/><rect x="225" y="165" width="10" height="10" transform="rotate(0,230,170)"/><path d="M 225 175v 10h 5a 5 5, 0, 0, 0, 0 -10" transform="rotate(90,230,180)"/><path d="M 225 195v 10h 5a 5 5, 0, 0, 0, 0 -10" transform="rotate(-90,230,200)"/><rect x="225" y="205" width="10" height="10" transform="rotate(0,230,210)"/><circle cx="230" cy="230" r="5" transform="rotate(0,230,230)"/><rect x="225" y="245" width="10" height="10" transform="rotate(0,230,250)"/><path d="M 225 265v 10h 5a 5 5, 0, 0, 0, 0 -10" transform="rotate(-90,230,270)"/><rect x="225" y="275" width="10" height="10" transform="rotate(0,230,280)"/><circle cx="240" cy="90" r="5" transform="rotate(0,240,90)"/><rect x="235" y="125" width="10" height="10" transform="rotate(0,240,130)"/><rect x="235" y="135" width="10" height="10" transform="rotate(0,240,140)"/><rect x="235" y="145" width="10" height="10" transform="rotate(0,240,150)"/><rect x="235" y="155" width="10" height="10" transform="rotate(0,240,160)"/><path d="M 235 165v 10h 10v -5a 5 5, 0, 0, 0, -5 -5" transform="rotate(90,240,170)"/><path d="M 235 185v 10h 5a 5 5, 0, 0, 0, 0 -10" transform="rotate(180,240,190)"/><rect x="235" y="205" width="10" height="10" transform="rotate(0,240,210)"/><rect x="235" y="245" width="10" height="10" transform="rotate(0,240,250)"/><path d="M 235 275v 10h 5a 5 5, 0, 0, 0, 0 -10" transform="rotate(0,240,280)"/><path d="M 245 115v 10h 10v -5a 5 5, 0, 0, 0, -5 -5" transform="rotate(-90,250,120)"/><rect x="245" y="125" width="10" height="10" transform="rotate(0,250,130)"/><path d="M 245 145v 10h 10v -5a 5 5, 0, 0, 0, -5 -5" transform="rotate(0,250,150)"/><path d="M 245 155v 10h 10v -5a 5 5, 0, 0, 0, -5 -5" transform="rotate(90,250,160)"/><rect x="245" y="185" width="10" height="10" transform="rotate(0,250,190)"/><path d="M 245 205v 10h 10v -5a 5 5, 0, 0, 0, -5 -5" transform="rotate(0,250,210)"/><rect x="245" y="215" width="10" height="10" transform="rotate(0,250,220)"/><rect x="245" y="225" width="10" height="10" transform="rotate(0,250,230)"/><rect x="245" y="235" width="10" height="10" transform="rotate(0,250,240)"/><rect x="245" y="245" width="10" height="10" transform="rotate(0,250,250)"/><rect x="245" y="255" width="10" height="10" transform="rotate(0,250,260)"/><path d="M 245 265v 10h 10v -5a 5 5, 0, 0, 0, -5 -5" transform="rotate(180,250,270)"/><circle cx="250" cy="290" r="5" transform="rotate(0,250,290)"/><path d="M 255 85v 10h 5a 5 5, 0, 0, 0, 0 -10" transform="rotate(180,260,90)"/><path d="M 255 105v 10h 10v -5a 5 5, 0, 0, 0, -5 -5" transform="rotate(-90,260,110)"/><rect x="255" y="115" width="10" height="10" transform="rotate(0,260,120)"/><rect x="255" y="125" width="10" height="10" transform="rotate(0,260,130)"/><path d="M 255 165v 10h 5a 5 5, 0, 0, 0, 0 -10" transform="rotate(180,260,170)"/><rect x="255" y="185" width="10" height="10" transform="rotate(0,260,190)"/><path d="M 255 195v 10h 5a 5 5, 0, 0, 0, 0 -10" transform="rotate(90,260,200)"/><path d="M 255 245v 10h 10v -5a 5 5, 0, 0, 0, -5 -5" transform="rotate(0,260,250)"/><rect x="255" y="255" width="10" height="10" transform="rotate(0,260,260)"/><rect x="255" y="265" width="10" height="10" transform="rotate(0,260,270)"/><path d="M 255 275v 10h 5a 5 5, 0, 0, 0, 0 -10" transform="rotate(90,260,280)"/><rect x="265" y="85" width="10" height="10" transform="rotate(0,270,90)"/><rect x="265" y="95" width="10" height="10" transform="rotate(0,270,100)"/><rect x="265" y="105" width="10" height="10" transform="rotate(0,270,110)"/><path d="M 265 125v 10h 5a 5 5, 0, 0, 0, 0 -10" transform="rotate(0,270,130)"/><path d="M 265 145v 10h 10v -5a 5 5, 0, 0, 0, -5 -5" transform="rotate(-90,270,150)"/><rect x="265" y="155" width="10" height="10" transform="rotate(0,270,160)"/><rect x="265" y="165" width="10" height="10" transform="rotate(0,270,170)"/><rect x="265" y="175" width="10" height="10" transform="rotate(0,270,180)"/><rect x="265" y="185" width="10" height="10" transform="rotate(0,270,190)"/><path d="M 265 205v 10h 5a 5 5, 0, 0, 0, 0 -10" transform="rotate(180,270,210)"/><circle cx="270" cy="240" r="5" transform="rotate(0,270,240)"/><rect x="265" y="255" width="10" height="10" transform="rotate(0,270,260)"/><path d="M 265 265v 10h 10v -5a 5 5, 0, 0, 0, -5 -5" transform="rotate(90,270,270)"/><circle cx="270" cy="290" r="5" transform="rotate(0,270,290)"/><path d="M 275 85v 10h 10v -5a 5 5, 0, 0, 0, -5 -5" transform="rotate(0,280,90)"/><rect x="275" y="95" width="10" height="10" transform="rotate(0,280,100)"/><rect x="275" y="105" width="10" height="10" transform="rotate(0,280,110)"/><path d="M 275 145v 10h 5a 5 5, 0, 0, 0, 0 -10" transform="rotate(0,280,150)"/><path d="M 275 165v 10h 5a 5 5, 0, 0, 0, 0 -10" transform="rotate(0,280,170)"/><rect x="275" y="185" width="10" height="10" transform="rotate(0,280,190)"/><rect x="275" y="205" width="10" height="10" transform="rotate(0,280,210)"/><circle cx="280" cy="230" r="5" transform="rotate(0,280,230)"/><path d="M 275 245v 10h 5a 5 5, 0, 0, 0, 0 -10" transform="rotate(-90,280,250)"/><rect x="275" y="255" width="10" height="10" transform="rotate(0,280,260)"/><path d="M 275 275v 10h 5a 5 5, 0, 0, 0, 0 -10" transform="rotate(180,280,280)"/><path d="M 285 95v 10h 10v -5a 5 5, 0, 0, 0, -5 -5" transform="rotate(0,290,100)"/><path d="M 285 105v 10h 10v -5a 5 5, 0, 0, 0, -5 -5" transform="rotate(90,290,110)"/><circle cx="290" cy="130" r="5" transform="rotate(0,290,130)"/><circle cx="290" cy="160" r="5" transform="rotate(0,290,160)"/><path d="M 285 185v 10h 10v -5a 5 5, 0, 0, 0, -5 -5" transform="rotate(0,290,190)"/><rect x="285" y="195" width="10" height="10" transform="rotate(0,290,200)"/><rect x="285" y="205" width="10" height="10" transform="rotate(0,290,210)"/><path d="M 285 215v 10h 5a 5 5, 0, 0, 0, 0 -10" transform="rotate(90,290,220)"/><circle cx="290" cy="240" r="5" transform="rotate(0,290,240)"/><path d="M 285 255v 10h 10v -5a 5 5, 0, 0, 0, -5 -5" transform="rotate(0,290,260)"/><rect x="285" y="265" width="10" height="10" transform="rotate(0,290,270)"/><path d="M 285 275v 10h 10v -5a 5 5, 0, 0, 0, -5 -5" transform="rotate(90,290,280)"/></g><g class="corners-square-color-0-0"><path clip-rule="evenodd" d="M 5 30v 20a 25 25, 0, 0, 0, 25 25h 20a 25 25, 0, 0, 0, 25 -25v -20a 25 25, 0, 0, 0, -25 -25h -20a 25 25, 0, 0, 0, -25 25M 30 15h 20a 15 15, 0, 0, 1, 15 15v 20a 15 15, 0, 0, 1, -15 15h -20a 15 15, 0, 0, 1, -15 -15v -20a 15 15, 0, 0, 1, 15 -15" transform="rotate(0,40,40)"/></g><g class="corners-dot-color-0-0"><path d="M 25 25v 10h 10v -5a 5 5, 0, 0, 0, -5 -5" transform="rotate(-90,30,30)"/><rect x="25" y="35" width="10" height="10" transform="rotate(0,30,40)"/><path d="M 25 45v 10h 10v -5a 5 5, 0, 0, 0, -5 -5" transform="rotate(180,30,50)"/><rect x="35" y="25" width="10" height="10" transform="rotate(0,40,30)"/><rect x="35" y="35" width="10" height="10" transform="rotate(0,40,40)"/><rect x="35" y="45" width="10" height="10" transform="rotate(0,40,50)"/><path d="M 45 25v 10h 10v -5a 5 5, 0, 0, 0, -5 -5" transform="rotate(0,50,30)"/><rect x="45" y="35" width="10" height="10" transform="rotate(0,50,40)"/><path d="M 45 45v 10h 10v -5a 5 5, 0, 0, 0, -5 -5" transform="rotate(90,50,50)"/></g><g class="corners-square-color-1-0"><path clip-rule="evenodd" d="M 225 30v 20a 25 25, 0, 0, 0, 25 25h 20a 25 25, 0, 0, 0, 25 -25v -20a 25 25, 0, 0, 0, -25 -25h -20a 25 25, 0, 0, 0, -25 25M 250 15h 20a 15 15, 0, 0, 1, 15 15v 20a 15 15, 0, 0, 1, -15 15h -20a 15 15, 0, 0, 1, -15 -15v -20a 15 15, 0, 0, 1, 15 -15" transform="rotate(90,260,40)"/></g><g class="corners-dot-color-1-0"><path d="M 245 25v 10h 10v -5a 5 5, 0, 0, 0, -5 -5" transform="rotate(-90,250,30)"/><rect x="245" y="35" width="10" height="10" transform="rotate(0,250,40)"/><path d="M 245 45v 10h 10v -5a 5 5, 0, 0, 0, -5 -5" transform="rotate(180,250,50)"/><rect x="255" y="25" width="10" height="10" transform="rotate(0,260,30)"/><rect x="255" y="35" width="10" height="10" transform="rotate(0,260,40)"/><rect x="255" y="45" width="10" height="10" transform="rotate(0,260,50)"/><path d="M 265 25v 10h 10v -5a 5 5, 0, 0, 0, -5 -5" transform="rotate(0,270,30)"/><rect x="265" y="35" width="10" height="10" transform="rotate(0,270,40)"/><path d="M 265 45v 10h 10v -5a 5 5, 0, 0, 0, -5 -5" transform="rotate(90,270,50)"/></g><g class="corners-square-color-0-1"><path clip-rule="evenodd" d="M 5 250v 20a 25 25, 0, 0, 0, 25 25h 20a 25 25, 0, 0, 0, 25 -25v -20a 25 25, 0, 0, 0, -25 -25h -20a 25 25, 0, 0, 0, -25 25M 30 235h 20a 15 15, 0, 0, 1, 15 15v 20a 15 15, 0, 0, 1, -15 15h -20a 15 15, 0, 0, 1, -15 -15v -20a 15 15, 0, 0, 1, 15 -15" transform="rotate(-90,40,260)"/></g><g class="corners-dot-color-0-1"><path d="M 25 245v 10h 10v -5a 5 5, 0, 0, 0, -5 -5" transform="rotate(-90,30,250)"/><rect x="25" y="255" width="10" height="10" transform="rotate(0,30,260)"/><path d="M 25 265v 10h 10v -5a 5 5, 0, 0, 0, -5 -5" transform="rotate(180,30,270)"/><rect x="35" y="245" width="10" height="10" transform="rotate(0,40,250)"/><rect x="35" y="255" width="10" height="10" transform="rotate(0,40,260)"/><rect x="35" y="265" width="10" height="10" transform="rotate(0,40,270)"/><path d="M 45 245v 10h 10v -5a 5 5, 0, 0, 0, -5 -5" transform="rotate(0,50,250)"/><rect x="45" y="255" width="10" height="10" transform="rotate(0,50,260)"/><path d="M 45 265v 10h 10v -5a 5 5, 0, 0, 0, -5 -5" transform="rotate(90,50,270)"/></g></svg></g></svg></svg>